<svg xmlns="http://www.w3.org/2000/svg" version="1.1" xmlns:xlink="http://www.w3.org/1999/xlink" xmlns:svgjs="http://svgjs.dev/svgjs" width="2000" height="333" viewBox="0 0 2000 333"><g transform="matrix(1,0,0,1,-1.2121212121212466,-2.4554487371964626)"><svg viewBox="0 0 396 66" data-background-color="#ffffff" preserveAspectRatio="xMidYMid meet" height="333" width="2000" xmlns="http://www.w3.org/2000/svg" xmlns:xlink="http://www.w3.org/1999/xlink"><g id="tight-bounds" transform="matrix(1,0,0,1,0.2400000000000091,0.4866655154803823)"><svg viewBox="0 0 395.52 65.02666896903925" height="65.02666896903925" width="395.52"><g><svg viewBox="0 0 506.82015320005087 83.32530928645193" height="65.02666896903925" width="395.52"><g><rect width="4.456811453566592" height="49.66782272833632" x="95.17629605651939" y="16.828743279057804" fill="#ffffff" opacity="1" stroke-width="0" stroke="transparent" fill-opacity="1" class="rect-yte-0" data-fill-palette-color="primary" rx="1%" id="yte-0" data-palette-color="#afc61c"></rect></g><g transform="matrix(1,0,0,1,111.30015320005089,16.952295076889484)"><svg viewBox="0 0 395.52 49.42071913267296" height="49.42071913267296" width="395.52"><g id="textblocktransform"><svg viewBox="0 0 395.52 49.42071913267296" height="49.42071913267296" width="395.52" id="textblock"><g><svg viewBox="0 0 395.52 49.42071913267296" height="49.42071913267296" width="395.52"><g transform="matrix(1,0,0,1,0,0)"><svg width="395.52" viewBox="3.91 -38.38 312.97999999999996 39.11" height="49.42071913267296" data-palette-color="#afc61c"><g class="wordmark-text-0" data-fill-palette-color="primary" id="text-0"><path d="M22.22 0L9.94 0Q7.42 0 6.12-0.63 4.81-1.27 4.36-2.71 3.91-4.15 3.91-6.54L3.91-6.54 3.91-28.47Q3.91-30.91 4.36-32.34 4.81-33.76 6.12-34.39 7.42-35.01 9.94-35.01L9.94-35.01 21.41-35.01Q22-35.01 22.29-34.81L22.29-34.81Q22.92-34.38 23.61-33.76 24.29-33.15 25.05-32.3L25.05-32.3Q25.29-31.98 25.29-31.79L25.29-31.79Q25.29-31.57 25.05-31.3L25.05-31.3Q24.29-30.44 23.61-29.83 22.92-29.22 22.29-28.78L22.29-28.78Q21.95-28.59 21.41-28.59L21.41-28.59 14.58-28.59Q12.96-28.59 12.38-27.91 11.79-27.22 11.79-25.56L11.79-25.56 11.79-20.83 20.56-20.83Q21.14-20.83 21.44-20.63L21.44-20.63Q22.07-20.19 22.75-19.58 23.44-18.97 24.19-18.12L24.19-18.12Q24.44-17.8 24.44-17.6L24.44-17.6Q24.44-17.38 24.19-17.11L24.19-17.11Q23.44-16.26 22.75-15.65 22.07-15.04 21.44-14.6L21.44-14.6Q21.09-14.4 20.56-14.4L20.56-14.4 11.79-14.4 11.79-9.47Q11.79-7.84 12.38-7.13 12.96-6.42 14.58-6.42L14.58-6.42 22.22-6.42Q22.8-6.42 23.1-6.23L23.1-6.23Q23.73-5.79 24.41-5.18 25.1-4.57 25.85-3.71L25.85-3.71Q26.1-3.39 26.1-3.2L26.1-3.2Q26.1-2.98 25.85-2.71L25.85-2.71Q25.1-1.86 24.41-1.25 23.73-0.63 23.1-0.2L23.1-0.2Q22.75 0 22.22 0L22.22 0ZM35.89-2.27L35.89-2.27Q34.54-4.39 33.24-7.17 31.93-9.94 30.87-12.78 29.81-15.63 29.17-17.98 28.54-20.34 28.54-21.61L28.54-21.61Q28.54-22.09 28.81-22.41L28.81-22.41Q29.93-23.8 32-25.32L32-25.32Q32.37-25.56 32.66-25.56L32.66-25.56Q32.98-25.56 33.32-25.32L33.32-25.32Q34.45-24.51 35.21-23.8 35.98-23.1 36.52-22.41L36.52-22.41Q36.79-22.09 36.79-21.51L36.79-21.51 36.79-21.63Q36.79-20.04 37.36-17.47 37.94-14.89 38.94-12.04 39.94-9.18 41.26-6.79L41.26-6.79 41.38-6.79Q42.48-8.59 43.33-10.69 44.19-12.79 44.77-14.89 45.36-16.99 45.66-18.75 45.97-20.51 45.97-21.61L45.97-21.61 45.97-21.51Q45.97-22.09 46.21-22.41L46.21-22.41Q46.77-23.1 47.53-23.8 48.29-24.51 49.36-25.32L49.36-25.32Q49.7-25.56 50-25.56L50-25.56Q50.34-25.56 50.63-25.32L50.63-25.32Q51.73-24.51 52.49-23.8 53.24-23.1 53.78-22.41L53.78-22.41Q54.03-22.09 54.03-21.56L54.03-21.56Q54-20.24 53.34-17.86 52.68-15.48 51.57-12.63 50.46-9.79 49.09-7.04 47.73-4.3 46.31-2.27L46.31-2.27Q45.46-1.03 44.77-0.51 44.09 0 42.4 0L42.4 0 39.82 0Q38.06 0 37.39-0.49 36.72-0.98 35.89-2.27ZM28.54-21.51L28.54-21.63 28.54-21.61Q28.54-21.56 28.54-21.51L28.54-21.51ZM54.03-21.61L54.03-21.61 54.03-21.51 54.03-21.56Q54.03-21.58 54.03-21.61ZM70.8 0.61L70.8 0.61Q66.67 0.61 63.62-0.72 60.57-2.05 58.88-4.86 57.2-7.67 57.2-12.11L57.2-12.11Q57.2-18.77 60.62-22.19 64.03-25.61 69.7-25.61L69.7-25.61Q73.38-25.61 75.93-24.29 78.49-22.97 79.82-20.65 81.15-18.33 81.15-15.36L81.15-15.36Q81.15-12.45 79.66-11.3 78.17-10.16 75.31-10.16L75.31-10.16 64.84-10.16Q65.03-7.64 66.68-6.32 68.33-5 71.16-5L71.16-5Q73.41-5 74.76-5.68 76.12-6.35 76.66-6.74L76.66-6.74Q77.12-7.08 77.7-7.06L77.7-7.06Q78.17-7.06 79.04-6.87 79.9-6.69 80.76-6.2L80.76-6.2Q81.37-5.88 81.37-5.32L81.37-5.32Q81.37-5 81.25-4.42L81.25-4.42Q81.17-4.08 81-3.43 80.83-2.78 80.56-2.22L80.56-2.22Q80.41-1.95 80.1-1.71L80.1-1.71Q79.61-1.37 78.52-0.81 77.44-0.24 75.56 0.18 73.68 0.61 70.8 0.61ZM64.79-15.16L64.79-15.16 72.75-15.16Q73.99-15.16 73.99-16.31L73.99-16.31Q73.99-18.04 72.91-19.23 71.82-20.41 69.65-20.41L69.65-20.41Q67.28-20.41 66.17-18.9 65.06-17.38 64.79-15.16ZM110.69-15.55L110.69-15.55 110.69-1.29Q110.69-0.56 110.38-0.28 110.08 0 109.34 0L109.34 0 104.31 0Q103.58 0 103.28-0.28 102.97-0.56 102.97-1.29L102.97-1.29 102.97-14.28Q102.97-16.94 101.85-18.16 100.72-19.38 98.8-19.38L98.8-19.38Q96.87-19.38 95.83-18.55 94.79-17.72 94.23-16.46L94.23-16.46 94.23-1.29Q94.23-0.56 93.93-0.28 93.62 0 92.89 0L92.89 0 87.86 0Q87.13 0 86.82-0.28 86.52-0.56 86.52-1.29L86.52-1.29 86.52-21.75Q86.52-22.34 86.76-22.66L86.76-22.66Q87.27-23.34 87.99-24.05 88.71-24.76 89.76-25.56L89.76-25.56Q90.08-25.81 90.37-25.81L90.37-25.81Q90.64-25.81 90.98-25.56L90.98-25.56Q92.01-24.76 92.74-24.02 93.47-23.29 94.04-22.51L94.04-22.51 94.16-22.51Q94.57-23.05 95.4-23.77 96.23-24.49 97.73-25.05 99.24-25.61 101.58-25.61L101.58-25.61Q103.87-25.61 105.95-24.68 108.02-23.75 109.36-21.56 110.69-19.36 110.69-15.55ZM127.16 0.61L127.16 0.61Q119.01 0.61 119.01-7.86L119.01-7.86 119.01-19.31 116.25-19.31Q115.52-19.31 115.24-19.62 114.96-19.92 114.96-20.65L114.96-20.65 114.96-23.66Q114.96-24.39 115.24-24.69 115.52-25 116.25-25L116.25-25 119.01-25 119.01-28.93Q119.01-29.52 119.25-29.83L119.25-29.83Q120.28-31.18 122.26-32.74L122.26-32.74Q122.6-32.98 122.87-32.98L122.87-32.98Q123.16-32.98 123.45-32.74L123.45-32.74Q124.5-31.93 125.22-31.23 125.94-30.52 126.45-29.83L126.45-29.83Q126.7-29.52 126.7-28.93L126.7-28.93 126.7-25 131.02-25Q131.75-25 132.03-24.69 132.31-24.39 132.31-23.66L132.31-23.66 132.31-20.65Q132.31-19.92 132.03-19.62 131.75-19.31 131.02-19.31L131.02-19.31 126.7-19.31 126.7-9.2Q126.7-5.3 129.53-5.3L129.53-5.3Q129.97-5.3 130.34-5.38 130.7-5.47 130.97-5.57L130.97-5.57Q131.48-5.76 131.69-5.71 131.9-5.66 132.07-5.18L132.07-5.18 133.49-1.39Q133.71-0.78 133.19-0.51L133.19-0.51Q132.83-0.34 131.42 0.13 130.02 0.61 127.16 0.61ZM151.43-11.69L151.43-11.69Q150.79-11.69 150.35-12.01L150.35-12.01Q149.89-12.33 149.26-12.92 148.62-13.5 147.84-14.36L147.84-14.36Q147.55-14.7 147.55-14.97L147.55-14.97Q147.55-15.23 147.84-15.58L147.84-15.58Q149.35-17.29 150.6-18.09L150.6-18.09Q150.89-18.29 151.43-18.29L151.43-18.29Q153.09-18.29 154.3-19.53 155.51-20.78 155.46-23.56L155.46-23.56Q155.43-26.56 153.98-27.76 152.53-28.96 150.01-28.96L150.01-28.96 148.84-28.96Q147.23-28.96 146.64-28.27 146.06-27.59 146.06-25.93L146.06-25.93 146.06-1.29Q146.06-0.56 145.75-0.28 145.45 0 144.71 0L144.71 0 139.51 0Q138.78 0 138.48-0.28 138.17-0.56 138.17-1.29L138.17-1.29 138.17-28.47Q138.17-30.91 138.62-32.34 139.07-33.76 140.38-34.39 141.69-35.01 144.2-35.01L144.2-35.01 150.01-35.01Q157.02-35.01 160.39-32.26 163.76-29.52 163.76-23.85L163.76-23.85Q163.76-19.6 161.99-16.92 160.22-14.23 157.4-12.96 154.58-11.69 151.43-11.69ZM176.82-1.83L171.71 0.51Q171.2 0.73 170.98 0.73L170.98 0.73Q170.76 0.73 170.52 0.56L170.52 0.56Q169.96 0.17 169.24-1.35 168.52-2.88 168.52-6.05L168.52-6.05 168.52-34.33Q168.52-34.91 168.76-35.23L168.76-35.23Q169.78-36.57 171.76-38.13L171.76-38.13Q172.1-38.38 172.37-38.38L172.37-38.38Q172.69-38.38 172.98-38.13L172.98-38.13Q174.03-37.33 174.75-36.62 175.47-35.91 175.99-35.23L175.99-35.23Q176.23-34.91 176.23-34.33L176.23-34.33 176.23-7.54Q176.23-5.93 176.5-4.8 176.77-3.66 177.13-2.98L177.13-2.98Q177.55-2.17 176.82-1.83L176.82-1.83ZM189.39 0.61L189.39 0.61Q185.8 0.61 183.69-1.4 181.57-3.42 181.57-6.96L181.57-6.96Q181.57-8.79 182.25-10.36 182.92-11.94 184.59-13.15 186.26-14.36 189.28-15.09 192.29-15.82 196.98-15.94L196.98-15.94Q196.98-18.16 195.87-19.14 194.76-20.12 192.54-20.12L192.54-20.12Q190.53-20.12 189.26-19.43 188-18.75 187.68-18.51L187.68-18.51Q187.34-18.21 186.85-18.29L186.85-18.29Q186.19-18.38 185.44-18.63 184.7-18.87 183.84-19.19L183.84-19.19Q183.72-19.24 183.58-19.35 183.43-19.46 183.41-19.68L183.41-19.68Q183.41-19.8 183.43-19.98 183.45-20.17 183.55-20.65L183.55-20.65Q183.65-21.14 183.84-21.86 184.04-22.58 184.21-22.97L184.21-22.97Q184.43-23.39 184.94-23.75L184.94-23.75Q185.36-24.1 187.46-24.85 189.56-25.61 193.54-25.61L193.54-25.61Q204.5-25.61 204.5-14.94L204.5-14.94 204.5-1.12Q204.5-0.66 204.24-0.33 203.99 0 203.38 0L203.38 0 199.71 0Q199.32 0 199.02-0.11 198.71-0.22 198.44-0.54L198.44-0.54 196.93-2.49 196.76-2.49Q195.64-0.85 193.74-0.12 191.85 0.61 189.39 0.61ZM192.07-5.05L192.07-5.05Q194.32-5.05 195.47-6.2 196.61-7.35 196.93-8.57L196.93-8.57 196.93-11.28Q193.54-11.28 191.84-10.75 190.14-10.23 189.58-9.39 189.02-8.54 189.02-7.57L189.02-7.57Q189.02-6.15 189.9-5.6 190.78-5.05 192.07-5.05ZM235.26-15.55L235.26-15.55 235.26-1.29Q235.26-0.56 234.95-0.28 234.65 0 233.92 0L233.92 0 228.89 0Q228.15 0 227.85-0.28 227.54-0.56 227.54-1.29L227.54-1.29 227.54-14.28Q227.54-16.94 226.42-18.16 225.3-19.38 223.37-19.38L223.37-19.38Q221.44-19.38 220.4-18.55 219.36-17.72 218.8-16.46L218.8-16.46 218.8-1.29Q218.8-0.56 218.5-0.28 218.19 0 217.46 0L217.46 0 212.43 0Q211.7 0 211.39-0.28 211.09-0.56 211.09-1.29L211.09-1.29 211.09-21.75Q211.09-22.34 211.33-22.66L211.33-22.66Q211.85-23.34 212.57-24.05 213.29-24.76 214.34-25.56L214.34-25.56Q214.65-25.81 214.95-25.81L214.95-25.81Q215.21-25.81 215.56-25.56L215.56-25.56Q216.58-24.76 217.31-24.02 218.05-23.29 218.61-22.51L218.61-22.51 218.73-22.51Q219.15-23.05 219.98-23.77 220.81-24.49 222.31-25.05 223.81-25.61 226.15-25.61L226.15-25.61Q228.45-25.61 230.52-24.68 232.6-23.75 233.93-21.56 235.26-19.36 235.26-15.55ZM266.02-15.55L266.02-15.55 266.02-1.29Q266.02-0.56 265.71-0.28 265.41 0 264.67 0L264.67 0 259.65 0Q258.91 0 258.61-0.28 258.3-0.56 258.3-1.29L258.3-1.29 258.3-14.28Q258.3-16.94 257.18-18.16 256.06-19.38 254.13-19.38L254.13-19.38Q252.2-19.38 251.16-18.55 250.12-17.72 249.56-16.46L249.56-16.46 249.56-1.29Q249.56-0.56 249.26-0.28 248.95 0 248.22 0L248.22 0 243.19 0Q242.46 0 242.15-0.28 241.85-0.56 241.85-1.29L241.85-1.29 241.85-21.75Q241.85-22.34 242.09-22.66L242.09-22.66Q242.6-23.34 243.32-24.05 244.04-24.76 245.09-25.56L245.09-25.56Q245.41-25.81 245.71-25.81L245.71-25.81Q245.97-25.81 246.32-25.56L246.32-25.56Q247.34-24.76 248.07-24.02 248.81-23.29 249.37-22.51L249.37-22.51 249.49-22.51Q249.9-23.05 250.73-23.77 251.56-24.49 253.07-25.05 254.57-25.61 256.91-25.61L256.91-25.61Q259.21-25.61 261.28-24.68 263.36-23.75 264.69-21.56 266.02-19.36 266.02-15.55ZM284.86 0.61L284.86 0.61Q280.74 0.61 277.68-0.72 274.63-2.05 272.95-4.86 271.26-7.67 271.26-12.11L271.26-12.11Q271.26-18.77 274.68-22.19 278.1-25.61 283.76-25.61L283.76-25.61Q287.45-25.61 290-24.29 292.55-22.97 293.88-20.65 295.21-18.33 295.21-15.36L295.21-15.36Q295.21-12.45 293.73-11.3 292.24-10.16 289.38-10.16L289.38-10.16 278.91-10.16Q279.1-7.64 280.75-6.32 282.4-5 285.23-5L285.23-5Q287.48-5 288.83-5.68 290.18-6.35 290.72-6.74L290.72-6.74Q291.19-7.08 291.77-7.06L291.77-7.06Q292.24-7.06 293.1-6.87 293.97-6.69 294.82-6.2L294.82-6.2Q295.43-5.88 295.43-5.32L295.43-5.32Q295.43-5 295.31-4.42L295.31-4.42Q295.24-4.08 295.07-3.43 294.9-2.78 294.63-2.22L294.63-2.22Q294.48-1.95 294.16-1.71L294.16-1.71Q293.68-1.37 292.59-0.81 291.5-0.24 289.62 0.18 287.74 0.61 284.86 0.61ZM278.86-15.16L278.86-15.16 286.82-15.16Q288.06-15.16 288.06-16.31L288.06-16.31Q288.06-18.04 286.97-19.23 285.89-20.41 283.72-20.41L283.72-20.41Q281.35-20.41 280.24-18.9 279.13-17.38 278.86-15.16ZM308.3-22.17L308.3-20.36 308.4-20.36Q310.23-25.44 314.99-25.44L314.99-25.44Q315.6-25.44 315.99-25.38 316.38-25.32 316.53-25.27L316.53-25.27Q316.89-25.15 316.89-24.71L316.89-24.71 316.89-18.82Q316.89-18.07 316.01-18.41L316.01-18.41Q315.72-18.53 315.17-18.66 314.62-18.8 313.64-18.8L313.64-18.8Q311.13-18.8 309.71-16.96 308.3-15.11 308.3-11.94L308.3-11.94 308.3-1.29Q308.3-0.56 307.99-0.28 307.69 0 306.95 0L306.95 0 301.93 0Q301.19 0 300.89-0.28 300.58-0.56 300.58-1.29L300.58-1.29 300.58-21.75Q300.58-22.34 300.83-22.66L300.83-22.66Q301.34-23.34 302.06-24.05 302.78-24.76 303.83-25.56L303.83-25.56Q304.03-25.71 304.22-25.76 304.42-25.81 304.56-25.81L304.56-25.81Q304.9-25.81 305.25-25.56L305.25-25.56Q307.27-23.97 308.08-22.85L308.08-22.85Q308.3-22.56 308.3-22.17L308.3-22.17Z" fill="#ffffff" data-fill-palette-color="primary"></path></g></svg></g></svg></g></svg></g></svg></g><g><svg viewBox="0 0 83.50925036655448 83.32530928645193" height="83.32530928645193" width="83.50925036655448"><g><svg xmlns:x="http://ns.adobe.com/Extensibility/1.0/" xmlns:i="http://ns.adobe.com/AdobeIllustrator/10.0/" xmlns:graph="http://ns.adobe.com/Graphs/1.0/" xmlns="http://www.w3.org/2000/svg" xmlns:xlink="http://www.w3.org/1999/xlink" version="1.1" x="0" y="0" viewBox="4.6 4.7 90.80000000000001 90.6" enable-background="new 0 0 100 100" xml:space="preserve" height="83.32530928645193" width="83.50925036655448" class="icon-icon-0" data-fill-palette-color="accent" id="icon-0"><path d="M37.6 48.8C37.6 49.6 36.9 50.3 36.1 50.3H30.5C29.7 50.3 29 49.6 29 48.8V43.2C29 42.4 29.7 41.7 30.5 41.7H36.1C36.9 41.7 37.6 42.4 37.6 43.2zM49.4 43.2C49.4 42.4 48.7 41.7 47.9 41.7H42.3C41.5 41.7 40.8 42.4 40.8 43.2V48.8C40.8 49.6 41.5 50.3 42.3 50.3H47.9C48.7 50.3 49.4 49.6 49.4 48.8zM61.2 43.2C61.2 42.4 60.5 41.7 59.7 41.7H54C53.2 41.7 52.5 42.4 52.5 43.2V48.8C52.5 49.6 53.2 50.3 54 50.3H59.6C60.4 50.3 61.1 49.6 61.1 48.8V43.2zM37.6 54.6C37.6 53.8 36.9 53.1 36.1 53.1H30.5C29.7 53.1 29 53.8 29 54.6V60.2C29 61 29.7 61.7 30.5 61.7H36.1C36.9 61.7 37.6 61 37.6 60.2zM49.4 54.6C49.4 53.8 48.7 53.1 47.9 53.1H42.3C41.5 53.1 40.8 53.8 40.8 54.6V60.2C40.8 61 41.5 61.7 42.3 61.7H47.9C48.7 61.7 49.4 61 49.4 60.2zM59.7 53.1H54C53.2 53.1 52.5 53.8 52.5 54.6V60.2C52.5 61 53.2 61.7 54 61.7H59.6C60.4 61.7 61.1 61 61.1 60.2V54.6C61.2 53.8 60.5 53.1 59.7 53.1M24.3 64.6H18.7C17.9 64.6 17.2 65.3 17.2 66.1V71.7C17.2 72.5 17.9 73.2 18.7 73.2H24.3C25.1 73.2 25.8 72.5 25.8 71.7V66.1C25.8 65.3 25.2 64.6 24.3 64.6M25.8 54.6C25.8 53.8 25.1 53.1 24.3 53.1H18.7C17.9 53.1 17.2 53.8 17.2 54.6V60.2C17.2 61 17.9 61.7 18.7 61.7H24.3C25.1 61.7 25.8 61 25.8 60.2zM47.9 64.6H42.3C41.5 64.6 40.8 65.3 40.8 66.1V71.7C40.8 72.5 41.5 73.2 42.3 73.2H47.9C48.7 73.2 49.4 72.5 49.4 71.7V66.1C49.4 65.3 48.7 64.6 47.9 64.6M36.1 64.6H30.5C29.7 64.6 29 65.3 29 66.1V71.7C29 72.5 29.7 73.2 30.5 73.2H36.1C36.9 73.2 37.6 72.5 37.6 71.7V66.1C37.6 65.3 36.9 64.6 36.1 64.6M65.8 41.7C65 41.7 64.3 42.4 64.3 43.2V48.8C64.3 49.6 65 50.3 65.8 50.3H71.4C72.2 50.3 72.9 49.6 72.9 48.8V43.2C72.9 42.4 72.2 41.7 71.4 41.7zM4.6 22.2V76.6C4.6 81.5 8.6 85.4 13.4 85.4H56.2C55.5 83.2 55.1 80.9 55.1 78.6H13.5C12.4 78.6 11.5 77.7 11.5 76.6V36.4H78.6V55.2C81 55.2 83.3 55.6 85.4 56.2V22.2C85.4 17.3 81.4 13.4 76.6 13.4H66.7V7.9C66.7 6.1 65.3 4.7 63.5 4.7H58.5C56.7 4.7 55.3 6.1 55.3 7.9V13.4H34.9V7.9C34.9 6.1 33.5 4.7 31.7 4.7H26.7C24.9 4.7 23.5 6.1 23.5 7.9V13.4H13.6C8.6 13.4 4.6 17.4 4.6 22.2M95.4 78.4C95.4 87.7 87.8 95.3 78.5 95.3S61.6 87.7 61.6 78.4 69.2 61.5 78.5 61.5 95.4 69.1 95.4 78.4M87 74.7L83.8 71.5 76.4 78.9 73.3 75.8 69.9 79 73 82.1 76.2 85.4 79.5 82.2z" fill="#ffffff" data-fill-palette-color="accent"></path></svg><g></g></g></svg></g></svg></g><defs></defs></svg><rect width="395.52" height="65.02666896903925" fill="none" stroke="none" visibility="hidden"></rect></g></svg></g></svg>